<svg width="36" height="36" viewBox="0 0 36 36" fill="none" xmlns="http://www.w3.org/2000/svg">
<circle cx="18" cy="18" r="18" fill="#115273"/>
<path d="M18 14.4449C16.0382 14.4449 14.4448 16.0383 14.4448 18C14.4448 19.9617 16.0382 21.559 18 21.559C19.9617 21.559 21.559 19.9617 21.559 18C21.559 16.0383 19.9617 14.4449 18 14.4449Z" fill="white"/>
<path d="M23.3656 8.30769H12.6343C10.25 8.30769 8.30762 10.25 8.30762 12.6343V23.3657C8.30762 25.7538 10.25 27.6923 12.6343 27.6923H23.3656C25.7538 27.6923 27.6922 25.7538 27.6922 23.3657V12.6343C27.6922 10.25 25.7538 8.30769 23.3656 8.30769ZM17.9999 24.2806C14.5378 24.2806 11.7193 21.4621 11.7193 18C11.7193 14.5379 14.5378 11.7233 17.9999 11.7233C21.462 11.7233 24.2805 14.5379 24.2805 18C24.2805 21.4621 21.462 24.2806 17.9999 24.2806ZM24.4124 12.8631C23.6796 12.8631 23.0826 12.2699 23.0826 11.5372C23.0826 10.8044 23.6796 10.2074 24.4124 10.2074C25.1451 10.2074 25.7421 10.8044 25.7421 11.5372C25.7421 12.2699 25.1451 12.8631 24.4124 12.8631Z" fill="white"/>
</svg>
