<svg width="36" height="36" viewBox="0 0 36 36" fill="none" xmlns="http://www.w3.org/2000/svg">
<circle cx="18" cy="18" r="18" fill="#115273"/>
<path d="M24.9232 15.1456C24.9232 19.8243 22.4583 23.3201 18.8247 23.3201C17.6033 23.3201 16.4566 22.624 16.0637 21.8324C16.0637 21.8324 15.4077 24.5805 15.2695 25.1112C14.7799 26.985 13.3407 28.8601 13.2293 29.0138C13.151 29.121 12.9796 29.0874 12.9601 28.9454C12.9295 28.7065 12.5623 26.3419 12.9943 24.4126L14.4482 17.913C14.4482 17.913 14.0884 17.1511 14.0884 16.0263C14.0884 14.2584 15.0589 12.9386 16.2681 12.9386C17.2961 12.9386 17.7918 13.7522 17.7918 14.7285C17.7918 15.8197 17.1346 17.4507 16.7944 18.9604C16.5104 20.2259 17.3953 21.2577 18.5787 21.2577C20.7205 21.2577 22.1622 18.3547 22.1622 14.9157C22.1622 12.302 20.4941 10.3455 17.4589 10.3455C14.0309 10.3455 11.8941 13.0432 11.8941 16.0573C11.8941 17.0969 12.1854 17.8304 12.6406 18.396C12.8487 18.6569 12.8793 18.7615 12.8034 19.0611C12.7483 19.2806 12.6247 19.8088 12.5721 20.018C12.4974 20.3202 12.2649 20.4274 12.0067 20.3163C10.4279 19.6357 9.69238 17.811 9.69238 15.759C9.69238 12.3717 12.4008 8.30769 17.771 8.30769C22.0838 8.31286 24.9232 11.6072 24.9232 15.1456Z" fill="white"/>
</svg>
