<svg width="36" height="36" viewBox="0 0 36 36" fill="none" xmlns="http://www.w3.org/2000/svg">
<path d="M18 36C8.0604 36 0 27.9396 0 18C0 8.0604 8.0604 0 18 0C27.9396 0 36 8.0604 36 18C36 27.9396 27.9396 36 18 36Z" fill="#115273"/>
<path d="M29.4553 12.2076C29.1817 11.1708 28.3717 10.3572 27.3421 10.08C25.4773 9.57599 18.0037 9.57599 18.0037 9.57599C18.0037 9.57599 10.5265 9.57599 8.6653 10.08C7.6357 10.3572 6.8257 11.1708 6.5521 12.2076C6.0481 14.0832 6.0481 18 6.0481 18C6.0481 18 6.0481 21.9168 6.5485 23.7924C6.8221 24.8292 7.6321 25.6428 8.6617 25.92C10.5265 26.424 18.0001 26.424 18.0001 26.424C18.0001 26.424 25.4773 26.424 27.3385 25.92C28.3681 25.6428 29.1781 24.8292 29.4517 23.7924C29.9521 21.9168 29.9521 18 29.9521 18C29.9521 18 29.9521 14.0832 29.4553 12.2076ZM15.5557 21.5532V14.4468L21.8017 18L15.5557 21.5532Z" fill="white"/>
</svg>
